<svg xmlns="http://www.w3.org/2000/svg" viewBox="0 0 64 64">
  <defs>
    <linearGradient id="a" x1="8" y1="6" x2="56" y2="59" gradientUnits="userSpaceOnUse">
      <stop stop-color="#7c8dff"/>
      <stop offset="1" stop-color="#4d5ee6"/>
    </linearGradient>
  </defs>
  <rect width="64" height="64" rx="16" fill="#090a0d"/>
  <rect x="1" y="1" width="62" height="62" rx="15" fill="none" stroke="#2e355e" stroke-width="2"/>
  <path d="M49 20.5c-4-3.4-8.7-5.1-14.1-5.1-11.3 0-19.3 7.1-19.3 16.7 0 9.8 7.7 16.5 19.1 16.5 5.9 0 10.8-1.6 14.8-4.6V31.3H33.4v7.4h7.3v1.2c-1.7.9-3.6 1.4-5.7 1.4-6.1 0-10.2-3.6-10.2-9.2 0-5.5 4.3-9.3 10.3-9.3 3.6 0 6.8 1.1 9.6 3.4l4.3-5.7Z" fill="url(#a)"/>
  <circle cx="49" cy="18" r="2.5" fill="#c8ceff"/>
</svg>
